<svg width="73" height="38" viewBox="0 0 73 38" fill="none" xmlns="http://www.w3.org/2000/svg">
<path d="M24.6178 11.0688H27.2811L31.9118 22.3756H32.0823L36.713 11.0688H39.3763V25.6143H37.2882V15.0887H37.1533L32.8635 25.593H31.1306L26.8408 15.0816H26.7059V25.6143H24.6178V11.0688ZM43.5616 11.0688V25.6143H41.367V11.0688H43.5616ZM46.7863 25.7492C46.3981 25.7492 46.0643 25.6119 45.7849 25.3373C45.5055 25.0579 45.3659 24.7217 45.3659 24.3287C45.3659 23.9405 45.5055 23.609 45.7849 23.3344C46.0643 23.0551 46.3981 22.9154 46.7863 22.9154C47.1746 22.9154 47.5084 23.0551 47.7877 23.3344C48.0671 23.609 48.2068 23.9405 48.2068 24.3287C48.2068 24.5892 48.1405 24.8283 48.0079 25.0461C47.8801 25.2591 47.7096 25.4296 47.4966 25.5574C47.2835 25.6853 47.0467 25.7492 46.7863 25.7492Z" fill="#F81808"/>
<path d="M72 19.0986C72 23.6316 68.3512 27.9967 61.8573 31.2881C55.4194 34.5512 46.4557 36.5986 36.5 36.5986C26.5443 36.5986 17.5806 34.5512 11.1427 31.2881C4.64879 27.9967 1 23.6316 1 19.0986C1 14.5657 4.64879 10.2006 11.1427 6.90913C17.5806 3.64608 26.5443 1.59863 36.5 1.59863C46.4557 1.59863 55.4194 3.64608 61.8573 6.90913C68.3512 10.2006 72 14.5657 72 19.0986Z" stroke="#F81808" stroke-width="2"/>
</svg>
